<?xml version="1.0" encoding="UTF-8"?>
<svg version="1.1" viewBox="0 0 2048 1775" width="1280" height="1280" xmlns="http://www.w3.org/2000/svg">
<path transform="translate(901,344)" d="m0 0h26l18 2 17 4 16 6 15 8 11 9 12 12 9 13 8 16 6 18 4 20 1 9v328l-3 21-4 16-8 19-7 12-8 10-9 10-12 9-16 9-21 7-16 3-9 1h-34l-21-3-20-6-16-8-11-7-13-12-11-14-10-19-6-18-4-20-2-24v-300l2-24 4-20 5-15 8-17 10-14 9-10 14-11 19-10 15-5 21-4zm7 78-13 3-9 5-7 7-6 12-3 12v328l4 15 5 9 5 6 10 6 12 3h16l12-3 9-6 5-5 6-10 4-16v-326l-4-16-6-10-9-8-9-4-10-2z" fill="#6661C3"/>
<path transform="translate(588,344)" d="m0 0h27l18 2 17 4 16 6 16 9 11 9 10 10 9 13 8 15 7 21 4 21 1 11v321l-3 23-5 19-7 16-6 11-9 12-14 14-14 9-14 7-16 5-16 3-9 1h-35l-20-3-18-5-19-9-14-10-13-13-9-13-8-16-5-13-5-22-2-20v-314l2-19 4-19 6-17 8-16 9-12 9-10 11-9 15-9 18-7 17-4zm8 78-10 2-9 4-8 6-7 11-4 14-1 9v314l2 14 5 13 6 8 8 6 10 4 5 1h17l11-3 9-5 8-9 4-8 3-11 1-6v-321l-3-15-7-14-9-8-9-4-11-2z" fill="#4C74CE"/>
<path transform="translate(1097,352)" d="m0 0h257v78l-48 168-22 78-22 77-41 144-1 1h-87l2-10 39-133 76-259 19-65-173-1v-77z" fill="#B12AA4"/>
<path transform="translate(369,313)" d="m0 0h57v70l-18 1-11 2-10 5-7 8-4 10-3 19-1 140-3 15-5 12-7 10-8 8-14 8-7 3h-3v2l10 3 12 7 10 9 7 10 5 12 3 15 1 140 2 15 4 12 4 6 7 6 10 4 5 1 21 1v70l-1 1h-44l-20-2-15-4-16-8-9-7-5-5-7-8-8-16-4-14-1-7-1-162-2-19-4-10-4-6-12-6-9-2-18-2v-70l20-2 13-4 8-6 5-10 2-9 1-14 1-162 3-15 5-13 6-10 9-10 8-7 10-6 16-6z" fill="#139FE6"/>
<path transform="translate(1402,313)" d="m0 0h57l16 3 13 5 11 6 10 8 9 10 7 12 5 16 2 11 1 164 2 17 5 12 7 6 10 4 24 3 1 1v69l-23 3-12 4-6 5-5 10-2 9-1 11-1 164-3 16-5 13-6 10-9 10-8 7-14 8-15 5-11 2-14 1h-44l-1-1v-70l21-1 13-4 8-6 5-7 4-12 2-17 1-139 3-14 5-12 7-10 7-7 11-7 12-5h2v-2l-6-1-14-7-12-11-6-8-5-11-3-10-1-7-1-139-2-16-3-10-6-10-9-6-8-3-7-1-18-1z" fill="#DA0C92"/>
<path transform="translate(570,346)" d="m0 0h7l-3 2 1 82-5 4-7 11-4 14-1 9v314l2 14 5 13 6 8 5 5h-2v78l-2 4-12-2-16-5-17-8-14-10-13-13-9-13-8-16-5-13-5-22-2-20v-314l2-19 4-19 6-17 8-16 9-12 9-10 11-9 15-9 18-7z" fill="#3189DA"/>
<path transform="translate(963,351)" d="m0 0 11 3 19 10 11 9 12 12 9 13 8 16 6 18 4 20 1 9v328l-3 21-4 16-8 19-7 12-8 10-9 10-12 9-16 9-8 3-9-1 1-99-4-1-1 2v-3h3l1-12 1-2v-313l-1-2-1-15h2l-1-99h3z" fill="#864AB6"/>
<path transform="translate(1262,1044)" d="m0 0h50l2 9 21 150 22-158 1-1h50v225h-33l-1-166-25 165-1 1h-29l-2-9-23-152-1 160-1 1h-30z" fill="#B02BA4"/>
<path transform="translate(388,1044)" d="m0 0h61l16 3 12 6 6 5 6 10 4 13 1 9v21l-2 13-5 12-8 9-7 4 10 6 7 7 5 10 3 13v42l-4 15-6 10-7 7-8 5-13 4-8 1h-63zm36 32-1 1v58l1 1h16l8-2 6-4 3-6 1-4v-29l-3-8-5-5-8-2zm-1 92v68l1 1h22l9-3 5-6 2-8v-31l-2-10-4-6-6-4-4-1z" fill="#139EE5"/>
<path transform="translate(518,1044)" d="m0 0h60l16 3 12 6 8 8 7 14 3 13v137l-4 16-6 11-8 8-12 6-15 3h-61l-1-1v-223zm36 32-1 1v159l1 1h19l9-3 5-6 2-9v-125l-2-9-5-6-4-2-6-1z" fill="#358BDA"/>
<path transform="translate(1127,1044)" d="m0 0h35l1 91 37 1v-92h35l1 1v223l-1 1h-35v-101h-38v101h-35z" fill="#B02BA4"/>
<path transform="translate(647,1044)" d="m0 0h35l1 182 4 9 5 3 4 1h8l8-4 3-4 2-10 1-177h33l1 1v178l-3 16-5 12-9 10-9 6-7 3-10 2h-19l-16-4-10-6-7-7-8-16-2-9-1-10v-175z" fill="#4D73CD"/>
<path transform="translate(1476,1041)" d="m0 0h17l16 4 10 6 8 8 7 14 3 14v30h-33l-1-1-1-30-4-8-5-3-4-1h-7l-8 3-4 5-2 7v135l3 9 4 4 6 2h8l8-3 4-6 1-3 1-53h-17v-32h51v83l-3 15-7 14-4 5-10 7-9 4-10 2h-19l-16-4-11-7-7-8-6-12-3-12v-144l4-16 6-10 6-7 9-6 12-4z" fill="#D90C92"/>
<path transform="translate(1026,1044)" d="m0 0h48l17 103 19 117v5h-35l-2-9-4-28v-7h-41l-1 13-4 28-1 3h-33l6-39 30-184zm22 40-2 11-13 93v6h31l-1-12-14-98z" fill="#854AB6"/>
<path transform="translate(287,1044)" d="m0 0h47l2 5 26 160 9 56v4h-35l-2-9-5-34-40-1-1 13-4 27-1 4h-33l4-27 32-196zm22 40-2 10-13 94v6h31l-2-18-13-92z" fill="#139FE6"/>
<path transform="translate(887,1044)" d="m0 0h35l1 192 57 1v32h-93z" fill="#7556BC"/>
<path transform="translate(777,1044)" d="m0 0h35l1 192 57 1v32h-93z" fill="#6561C3"/>
<path transform="translate(578,1045)" d="m0 0h8l13 4 9 6 8 9 5 11 3 13v137l-4 16-6 11-8 8-12 6-8 2-13-1v-29l1-2 8-3 4-5 2-9v-125l-2-9-4-5-9-5v-29z" fill="#3F7FD4"/>
<path transform="translate(491,397)" d="m0 0 2 1-2 11v432l1 11-4-4-8-18-5-18-3-18-1-12v-314l2-19 4-19 6-17z" fill="#3189DA"/>
<path transform="translate(1361,1045)" d="m0 0h47v224h-33v-170h-3l1-3 1-47-3-1v-2h-10z" fill="#CC1899"/>
<path transform="translate(901,344)" d="m0 0h26l18 2 17 4 1 3h-3l1 2v97h-2l2 15 1 2v313l-2 10-1 4h-3l1-8v-326l-4-16-6-10-8-7-9-4-10-2h-12l-13 3-5 1-2-4v-73l2-5z" fill="#7556BC"/>
<path transform="translate(957,797)" d="m0 0 4 1v98l5 2-3 2-17 4-15 2h-34l-9-2 1-2-1-2v-73l2-2-1-2 5 1 12 3h16l12-3 9-6 3-1 8-16 2-3z" fill="#7556BC"/>
<path transform="translate(637,811)" d="m0 0 4 1 1 1v85l-1 4-13 3-9 1h-35l-12-2 1-4v-79l9 3 11 3h17l11-3 9-5z" fill="#407FD4"/>
<path transform="translate(588,344)" d="m0 0h27l18 2 9 2-1 3 1 2v84l-2 3-1 2-7-9-9-6-9-3-7-1h-11l-10 2-9 4-3-1-1-80 5-3z" fill="#407FD4"/>
<path transform="translate(1127,1044)" d="m0 0h35v1l-11 1-3 1v2h2v215l-2 1 3 2 11 1v1h-35z" fill="#9C3AAD"/>
<path transform="translate(1097,352)" d="m0 0h86v1l-36 1v2l3 1v69l-2 3 4 1h-56v-77z" fill="#9B3AAD"/>
<path transform="translate(1080,1093)" d="m0 0 2 2 3 16 25 153v4h-33l1-4-1-11v-154h2z" fill="#9B3AAD"/>
<path transform="translate(480,427)" d="m0 0 1 2-1 13v367l2 18-2 3-5-18-3-18-1-12v-314l2-19 4-19z" fill="#179DE4"/>
<path transform="translate(494,393)" d="m0 0h2v464l-4-5-1-2-1-9v-432l2-13z" fill="#139EE5"/>
<path transform="translate(1423,866)" d="m0 0 4 1 2 2-1 2v62l1 3 18 1v1h-44l-1-1v-70z" fill="#CA199A"/>
<path transform="translate(1402,313)" d="m0 0h35v1l-7 1-2 3v62l1 3-9 1-18-1z" fill="#CC1899"/>
<path transform="translate(482,1156)" d="m0 0 7 6 5 10 3 13v42l-4 15-6 10-4 3v-2l-4-1v-92l3-2z" fill="#3189DA"/>
<path transform="translate(483,1060)" d="m0 0 4 4 5 12 2 14v21l-2 13-5 12-4 4-2-1v-2h-2v-75z" fill="#338ADA"/>
<path transform="translate(959,1237)" d="m0 0h21v31h-21l4-2-3-2v-23z" fill="#874AB6"/>
<path transform="translate(1148,844)" d="m0 0 2 2-2 11 2 1v36l-2 1 3 2-5 1h-13l2-10z" fill="#9A3BAD"/>
<path transform="translate(490,1179)" d="m0 0h4l3 6v42l-4 6-3-1z" fill="#1B9AE3"/>
<path transform="translate(1358,1044)" d="m0 0h50v1l-48 1-3 2z" fill="#9E39AC"/>
</svg>
