<?xml version="1.0" encoding="UTF-8"?>
<svg version="1.1" viewBox="0 0 2048 2048" width="1280" height="1280" xmlns="http://www.w3.org/2000/svg">
<path transform="translate(329,1451)" d="m0 0h1390l17 4 16 8 14 11 9 10 8 13 5 12 3 12 1 7v13l-2 15-4 12-7 14-9 11-10 10-14 9-16 6-17 3h-1380l-17-3-16-7-11-7-16-16-8-13-5-11-4-17v-22l4-17 5-11 7-12 12-13 13-10 15-7 11-3z" fill="#F24D9A"/>
<path transform="translate(329,939)" d="m0 0h1390l17 4 16 8 14 11 9 10 8 13 5 12 3 12 1 7v13l-2 15-4 12-7 14-9 11-10 10-14 9-16 6-17 3h-1380l-17-3-16-7-11-7-16-16-8-13-5-11-4-17v-22l4-17 5-11 7-12 12-13 13-10 15-7 11-3z" fill="#D320D7"/>
<path transform="translate(329,427)" d="m0 0h1390l17 4 16 8 14 11 9 10 8 13 5 12 3 12 1 7v13l-2 15-4 12-7 14-9 11-10 10-14 9-16 6-17 3h-1380l-17-3-16-7-11-7-16-16-8-13-5-11-4-17v-22l4-17 5-11 7-12 12-13 13-10 15-7 11-3z" fill="#7D2EF8"/>
<path transform="translate(329,427)" d="m0 0h739l4 1-1 2-13 2-3 3 8 3v2l-12 4-1 6-1 1-13 2-4-1-4 1-3-3-5 2-1-3-7 2-1-3 5-4h2v-2l-7 2-2 4-4 2 3 3-4 4-7 3-6 4v5l-6 4-3 5-10 5-4 4-1-1v-5l-5 1-3 2-1-6 1-2-13 4-4 2-1 2-6 3-3 3-7 1-1 3-7 3-9 4-11 6h-2v2l-8 6-5 5-5 3h-2l-2 5-4 2-3 3-3 5-9 6-3 4-7 3-7 5-7 3-5 4-12 5-5 3h-2l1 5h5l-3 3-9 3-27 5-5 2 2 6 248 1v1h-685l-17-3-16-7-11-7-16-16-8-13-5-11-4-17v-22l4-17 5-11 7-12 12-13 13-10 15-7 11-3z" fill="#475AFB"/>
<path transform="translate(329,939)" d="m0 0h627v1l-16 2-26 2-7 2-2 2 17 4 11 2 10 3v2l3 1v4h-2v8l-6 5h-2l-2 7-2 6-3 7-4 4-5 3-8 8-11 6h-2l-1 3-18 8-7 9-7 7-4 6-5 4-5 5-11 4-5 5-5 2-6 5-7 6-6 5-3 6-11 4-12 2-8 3-15 3-8 3-196 1h-226l-17-3-16-7-11-7-16-16-8-13-5-11-4-17v-22l4-17 5-11 7-12 12-13 13-10 15-7 11-3z" fill="#7D2EF8"/>
<path transform="translate(329,1451)" d="m0 0h582v1l-21 2h-12l-1 3v-3h-9l1 1h5l-3 2-10 1-4 2h-5l3 1v3l6-1 21 2 3 2 7-1 4 1 3 1h5l2 5-6 2-1 4h-2l-2 2h-2l-3 3-3 4-2-2-5 5h7 3l-1 2 3-1 2-3h4 3v-4l-2-1 10-1h3l-1-3 10 1 2-2v-3l4-1 3 1v-2l5-1 2 1 2-2 1 1 2-2 5-2h3l1-3h4l-1-3h11 1l5 1 3 1 5 1 1 2 5 1 1-2 1 2-1 7-2 3-3-1-4-4v2h-2l1 3-2 1-3-1v2h-2v5l-6-2-1 2h-4l-2 4-6 3-3 1h-4v10l-4 1h-3l-5 5 1 2v5l-6 2-1 3-7 4 1 2-4 2-1 3-4 2-5 3-3 5-6 1-4 1 1 2-3 2-2 2-2-1v4h-2v2l-2 2-2 5-4 2h-5l-1 5-3 4-5-1-2-1v2l-6 2h-4l1 3-9 3-1 2-2 2h-3l-1 6h-3l-1 2h-4l-1 6-6 1-2-2 1 4-4 5h-11l-3 1h-5-2l-3 1-9-1h-7v-2h-2v-2h-2l-1 3-2-2h-2v-4l6 1 3-2 4-2v-3l8-2 1-2 10-3 2-1-4-2 3-3h2v-2l3-3-2-4 7-2 5-1 1-6 6-1h2l1-5-4-2-4-3-6 1-1 4h-6l-2 3-3 1-2 3h-5v2l-4 1-1 3-7 1-5 2h-4l1 6-5 2h-2l-6 2 1 1 4 1-4 2-1 5 3 3h-2v2h-3l-1 4-6 1-1 2 7 1 12 2 3 2 12 1-1 4-6-3v3l-12 1 1 3h-3v-2h-3v2l-352 1h-73l-17-3-16-7-11-7-16-16-8-13-5-11-4-17v-22l4-17 5-11 7-12 12-13 13-10 15-7 11-3z" fill="#D420D7"/>
<path transform="translate(329,427)" d="m0 0h442v1l-27 1-23 3-12 2-2 1-1 4-9 3-5 5-8 5-5 3-6 5-12 5-6 4h-4v2l-4 1-4-1-7 3-13 8-11 8-5 4-7 5-7 2-2 5-12 4-3 5-8 3-6 8-1 1-10 2-1 3-6 1-9 3-5 4-5 1-2 4-9 5-6 2-5 4-10 4-3 1-1 3-10 3-9 6-5 2-1 3-3 2-17 4-2 1v4h2v2h10l2 2 9 2 5-1 3 1h318l227 1v1h-685l-17-3-16-7-11-7-16-16-8-13-5-11-4-17v-22l4-17 5-11 7-12 12-13 13-10 15-7 11-3z" fill="#4B76F9"/>
<path transform="translate(1559,939)" d="m0 0h160l17 4 16 8 14 11 9 10 8 13 5 12 3 12 1 7v13l-2 15-4 12-7 14-9 11-10 10-14 9-16 6-17 3h-1154v-1l855-1 2-3h8l4-1 4 1 2-1-2-5-1-1-18-1-4-2v-5l3-1 2-3h2l-1-3 3-3-3-5 6-4-1-2h2v-2h3l1 2 3-5 6-2 7-1 1-3 2-1 4-4 5-1 3-3 3-1-1-3h3l1-2 6-1 1-6h4l-1 3 5-2-3-4 3-1 4-5 1-2 3 1v-3h5l2-4 4-1 3-6 4-1 2 1 2-5 4-1 4-2 3-1 1-5h7l1 5-2 1-1 4 3 1v2l-4 1 2 6-4 2h-2v-2h-2l-1 2-1-1-3 3-5-2-3 1v-2l-3 3-1 2h-3l-1 5h-3l-2 1-1 2-1-3h-2v4l-2 1-1 4-2-1-3-2-1 4-4 4-1 2 6 1-1 4-4 2 1 2 5 1-2 1-1 2h-3l-4 4-1-2-4 2-1 6h-2l-1 3h-3l-4 2v7h-2l-1 2-4-1-5 5-4 1v-2l-3 2-1 6-4-2-1-1-1 3 1 2h5l8 2 8-1 3 1h4l3-1h2 11v-2h5l2-2 2 1v-3l3-3 1-4h3v-2l3-1v-4l4-3 8-5 4 1 6-4 1 1 1-3 10-2v-2l9-2 5-2v-2l2-1v-3l6-1v-2h2l-3-7h2l1-6 3 1 2-5h2l1 2 3-2 1-3 4-1v-4h3l2-4 8-6 7-2v-2l6-3 6-1 2 3h6v-2h3l-1-4-4-2v-2l-5-1 2-2 10-1 1-4-3-2 5-2v-4l5-2 4 1v-2h2v-2l9-3v-2l9-2v-7l-6-4h-7v-2l-7 1-1 2-9-1h-3l-5 3h-2l-1 4-4 1-1 3h-7l-2 2-7-2-5 2-2-1v-3h2v-2l7 1-2-2-1-2v-1h-4v-2h-5l-2-1h-4v-2l-9 2v-2l-6 1h-3v-2l-6 1-22-2h-5l-3-4 5-2 8-2h5l-1-2h9l9-1 11-1h1z" fill="#F24D9A"/>
<path transform="translate(1618,427)" d="m0 0h101l17 4 16 8 14 11 9 10 8 13 5 12 3 12 1 7v13l-2 15-4 12-7 14-9 11-10 10-14 9-16 6-17 3h-497v-1l197-1 5-1 1-2 14-2 7-2 5-2 17-4 5-2 2-7 5-4h3v-2l11-8 4-2 9-5 8-6 9-6h2v-3h3l2-7 8-7 6-5 11-6 2-2 5-2 7-5 9-4 8-6 2-2 4-1 5-7 2-10h2l3-9h2l2-4 6-9 1-4-10-3-19-4-16-3-2-3 8-3 28-2z" fill="#D420D6"/>
<path transform="translate(329,427)" d="m0 0h181v1l-51 1-1 3-9 1 4 1v2h4l-1 4 1 1-1 4 1 8-4 3-7 2-4 3h-3l1 8-9 6-11 7-1 5h-3v2l-9 6 3 3-6 5 2 1-2 4-3 3h-3v2l-8 5-7 6-5 3-3 2-4 2-4 4v2l2 2-8 5-1 2h-2v2l-8 4-9 6-8 1-6 7-9 4-4-2-1 1-14 1-8-3-6-4-2 1-6-8v-2l-2 2 5 5 4 7 3 4-1 4-7-6-8-9-8-14-5-14-2-10v-22l4-17 5-11 7-12 12-13 13-10 15-7 11-3z" fill="#4E8BF3"/>
<path transform="translate(1618,427)" d="m0 0h97l-4 2-17 1-2 1h-9l1 2-8 2v2l16 4 5 2 1-2 8 5h4l1 3h-4v3l3 2 7 1 2 3v3l3 1-4 4h-8l-4 1-5-2h-7v2l-1 5h-5l-3 5 1 5-2 1 1 8v4h2v5l-6 3-2 2-3-2-5 5-8 1-2 4-13 7-7 3-3 4-4 1v-2l-4 4-1 5h-2l-1 2h-2v2l-5 3-1 5-4 1-1-2h-2l-4 4h-2l-1-2-4 2h-2l-4 1v3l-4 1-3 6 2 7-3-1-1 9h-2v5l5 3 10 1v3l-16-1-16 1-3 1-5-1-6 1-22 1-3 1v-4l-2-2 5-1 10-1h9l1-2v2l2-1h6l2 1v-2h2v-11l2-3 8-2h5l-2-1-2-6-3 2-5-2h-3l-1 4-4 2-3-1-1 4-4-1-5 2h-3v2l-7 2-4 1 1 4 1 2h-8l-7 3-4 2-2 2-1-2-5 3-12 2-23 3-5 2v2h-52l3-2h2l1-2 14-2 7-2 5-2 17-4 5-2 2-7 5-4h3v-2l11-8 4-2 9-5 8-6 9-6h2v-3h3l2-7 8-7 6-5 11-6 2-2 5-2 7-5 9-4 8-6 2-2 4-1 5-7 2-10h2l3-9h2l2-4 6-9 1-4-10-3-19-4-16-3-2-3 8-3 28-2z" fill="#BD12EA"/>
<path transform="translate(510,427)" d="m0 0h96v1l-31 1-9 1-7 1-10 2-4 1 1 2 7 2v2l-5 1-3 2h-4l-1 6-9 6-1 4-10 6-3 1v2l-6 4 1 6-4 4-2-1v4l-7 3 2 1 2 6-5 2 1 3 3 2-5 5-5 1-1-4-2-1-2 5-4 4-7-1-8 4-4 4-21 14-22 16-4 3-5 1-5 5-11 8-14 8-5 3-14 4-15 3-5 3-6 3-3 5-8 1-13-3-16-8-9-6-2-4-1-5-6-8-4-5v-3h2l6 8 5 2 7 4 9 1 9-1h4l2 1 9-5 5-6 8-1 12-8 5-1v-2h2l1-3 7-4-2-4 7-7 4-1 3-3 7-4 7-6 4-1v-2l5-3 3-4-3 1 2-4 4-3-3-3 8-6h2v-2h3l-1-4 11-8 10-6-1-6 1-2 9-5 7-2 1-3-1-7v-2l-1-2 2-1 1-3-6-1-3-2 7-2h3l1-2 9-1z" fill="#4B81F4"/>
<path transform="translate(956,939)" d="m0 0h97l5 1v1l-24 1-16 1-7 2-9 1-5 1v2l3-1v2l-7 1-5-3v2h-6l1-2-2-2h-10l-4 1-1 1 5 1 2 2 9 1 5 2 2-1v2l4 1 2 4 1 7h-3l-7 2-1 4h-2v12l-2 4v3l5 10v2l-6 3-6 5-1 1-3 2h-4l-1 2h-2l-1 2-3 1-3 3h-2v2l-10 6-4 2-1 2h-3l-1 4-1-1h-3l4-6h2v-2h-4l-2 4-7 1v3h-2l-2 4-4 3h-2l-2 4-4 3h-2l1 5-3 2-6 1-1 7-7 1v2l-7 2-1 4v-2h-2v2h-2l-1 3h-2v2l-11 4-1 3 2 1-1 3-6 5h-6v1l-19 3-9 1-5 1-11 1v2h-2v2h-51l3-2 9-3 15-3 4-2 12-2 11-4 3-6 12-11 8-6 5-2 6-5 11-4 4-5 5-4 4-6 8-8 5-7 18-8 3-3 12-7 4-4h2l2-4 4-2 5-6 2-9 4-8 7-6 1-7 1-4-2-1v-2l-10-2-24-5-5-2 1-3 9-2 36-3z" fill="#BD12EA"/>
<path transform="translate(329,427)" d="m0 0h181v1l-48 1-10 1-4 1-22 1-19 3-4 3-1 5 1 2 6 2v6l-4 6-3 2-3 7-7 4-8 2-5 5-11 3-6 3-2 5-6 3h-2l-1 3-6 3h-2v2l-5 2-8 5-8 3-8 6-5-2-4-2-11-1-1-4v-3l-8 1-1-4-2-1 1-6-5-1-2-2 2-3-1-4h-4l-1 7-3 2-3 14v7l1 3-1 6v18l3 11 2 6-4-4-7-15-4-17v-22l4-17 5-11 7-12 12-13 13-10 15-7 11-3z" fill="#5595F3"/>
<path transform="translate(329,1451)" d="m0 0h124v1l-65 1-9 1-22 1-1 2-4-1-5 2-5 1 9 1 9 2 18 2 29 2 16 3 6 3-5 5-10 4-4-1-4 1-2 5-5 2-1-4 3-6h-3l-3 4-1 3-3-1 1-8-1-3-4 1-9-2v-2l-7-2h-9l-8-2-15-1-5-1-3-2-2-1v-2l5-2-3-1-1 1-9 2-7 2-3 2h-3l-2 4-3 5h6l1 3-5 2-1 6-5 2-5 4h-3l-1-3v3l-2-1-1 1-8 1-7 7h-2l-2 4-5 8h-2l1-6 6-12 10-13 8-8 13-9 13-6 11-3z" fill="#BD13E9"/>
<path transform="translate(316,949)" d="m0 0 8 3 5 1 6 1 1 3-4 8-1 9-5 5-6 1v3l-4 2-1 3-9 3-7 6h-3l-2 6-4 5-7 3 2-6 2-3h-2l1-6h2l2-8 8-12 4-2 2-4 4-5 2-4 6-1-2-5 1-5z" fill="#475BFC"/>
<path transform="translate(469,594)" d="m0 0 4 1h318l227 1v1h-685v-1l132-1z" fill="#4D8AF3"/>
<path transform="translate(864,1506)" d="m0 0 2 1v2l-3 2 5 1v3 3l-2 1 2 1-1 2-5 5-4 5 1 2-5-1-1-1-2 3 1 2-4 3h-4v2l-6 2-8-1-8 1 1 3-2 2v-3l-3-1 5-4h2v-2l6-2v-2h5l1-3h2v-2h3l1-4 5-5 6-2 1-2 6 1 2-2-3-3h-3l5-5h2z" fill="#F24D9B"/>
<path transform="translate(376,946)" d="m0 0 10 2 2 1-2 4-7 2-2 3 4-2 7 1-1 3h-2l-1 6-5 5h-2v6l-9 4h-3v2l-4-1v-5l-1-1-3-1 5-4 4-10 6-4 2-4v-2l-3-1 2-3z" fill="#475AFB"/>
<path transform="translate(1e3 952)" d="m0 0h15l19 3h6v2l9 1 4 4v4l-4 1v-2h-2v-2l-4 1v5l1 1-2 4v-2l-6-2h-7l-5-1-3-1v-2l-2-2 3-2h4v-5l-8 1-3-2h-7l-3-2-5-1z" fill="#BD12EA"/>
<path transform="translate(284,960)" d="m0 0 1 4-6 13-4 9-3 3-2 4-10 5 3-9 6-11 8-11z" fill="#475DFB"/>
<path transform="translate(260,999)" d="m0 0h1v6l3 1v3l3 1-1 4-3 5h-7l1-12z" fill="#475DFB"/>
<path transform="translate(259,1039)" d="m0 0h3l3 11v3l2 1 1 9h2l1 8-4-4-7-15-2-7v-5z" fill="#475FFB"/>
<path transform="translate(901,1094)" d="m0 0h9l1 2h-3l-1 2-1-2-4 2-13 2h-12v-3l2-2h19z" fill="#BD12EB"/>
<path transform="translate(263,1510)" d="m0 0 1 2 2 1-1 3h-2v2l-2 1v5l-3 8-1 12h-1v-19l2-10z" fill="#B51BE7"/>
<path transform="translate(930,1451)" d="m0 0h37v2l-5 1-14-1-18-1z" fill="#D420D8"/>
<path transform="translate(893,1485)" d="m0 0 3 1 5-1 1 7-1-2h-5l-2 2v-3l-3-1z" fill="#E63BB3"/>
<path transform="translate(336,961)" d="m0 0 5 2-2 4-6 1-1-2z" fill="#475BFC"/>
<path transform="translate(373,960)" d="m0 0h2l-1 5-2 3-1 3-3-1 2-1-1-6z" fill="#7E2EF8"/>
<path transform="translate(1580,556)" d="m0 0 3 3-1 2 3 1-5 4-2-4z" fill="#D420D8"/>
<path transform="translate(1006,1016)" d="m0 0h5v4l-3 1-1 2h-2z" fill="#BD12EB"/>
</svg>
